<?xml version="1.0" encoding="UTF-8" standalone="no"?>
<!-- Created with Inkscape (http://www.inkscape.org/) -->

<svg
   xmlns:dc="http://purl.org/dc/elements/1.1/"
   xmlns:cc="http://creativecommons.org/ns#"
   xmlns:rdf="http://www.w3.org/1999/02/22-rdf-syntax-ns#"
   xmlns:svg="http://www.w3.org/2000/svg"
   xmlns="http://www.w3.org/2000/svg"
   xmlns:sodipodi="http://sodipodi.sourceforge.net/DTD/sodipodi-0.dtd"
   xmlns:inkscape="http://www.inkscape.org/namespaces/inkscape"
   id="svg2"
   version="1.1"
   inkscape:version="0.47 r22583"
   width="300.10257"
   height="93.931343"
   xml:space="preserve"
   sodipodi:docname="manipal.pdf"><metadata
     id="metadata8"><rdf:RDF><cc:Work
         rdf:about=""><dc:format>image/svg+xml</dc:format><dc:type
           rdf:resource="http://purl.org/dc/dcmitype/StillImage" /><dc:title></dc:title></cc:Work></rdf:RDF></metadata><defs
     id="defs6"><inkscape:perspective
       sodipodi:type="inkscape:persp3d"
       inkscape:vp_x="0 : 0.5 : 1"
       inkscape:vp_y="0 : 1000 : 0"
       inkscape:vp_z="1 : 0.5 : 1"
       inkscape:persp3d-origin="0.5 : 0.33333333 : 1"
       id="perspective10" /><clipPath
       clipPathUnits="userSpaceOnUse"
       id="clipPath18"><path
         d="m 0,0 0,870.2362 623.622,0 L 623.622,0 0,0 z"
         clip-rule="evenodd"
         id="path20" /></clipPath><clipPath
       clipPathUnits="userSpaceOnUse"
       id="clipPath26"><path
         d="m -588.7355,-140.2024 1650.6768,0 0,1142.0733 -1650.6768,0 0,-1142.0733 z"
         clip-rule="evenodd"
         id="path28" /></clipPath></defs><sodipodi:namedview
     pagecolor="#ffffff"
     bordercolor="#666666"
     borderopacity="1"
     objecttolerance="10"
     gridtolerance="10"
     guidetolerance="10"
     inkscape:pageopacity="0"
     inkscape:pageshadow="2"
     inkscape:window-width="1280"
     inkscape:window-height="750"
     id="namedview4"
     showgrid="false"
     inkscape:zoom="2.4545386"
     inkscape:cx="179.78779"
     inkscape:cy="61.284357"
     inkscape:window-x="-8"
     inkscape:window-y="-8"
     inkscape:window-maximized="1"
     inkscape:current-layer="g12" /><g
     id="g12"
     inkscape:groupmode="layer"
     inkscape:label="manipal"
     transform="matrix(1.25,0,0,-1.25,-145.22759,985.80863)"><g
       id="g3015"
       transform="matrix(0.99568143,0,0,0.99568143,0.50174047,3.081308)"><g
         transform="matrix(0.82012419,0,0,0.82012419,-110.0521,666.71376)"
         id="g2918"><path
           d="m 390.3035,84.6031 c 0,-2.6753 1.7104,-4.0053 4.2814,-4.0053 2.5733,0 4.2823,1.33 4.2823,4.0053 l 0,6.6784 -1.8263,0 0,-6.078 c 0,-1.4046 -0.0887,-3.0266 -2.456,-3.0266 -2.3672,0 -2.4536,1.622 -2.4536,3.0266 l 0,6.078 -1.8278,0 0,-6.6784 z m 21.1725,-3.7562 1.7402,0 0,7.6731 0.0448,0 4.7489,-7.6731 1.9278,0 0,10.4346 -1.7373,0 0,-7.6864 -0.0304,0 -4.7624,7.6864 -1.9316,0 0,-10.4346 z m 21.2037,0 1.827,0 0,10.4346 -1.827,0 0,-10.4346 z m 16.9359,0 2.031,0 3.566,10.4346 -1.855,0 -2.6747,-8.255 -0.0301,0 -2.6158,8.255 -1.9023,0 3.4809,-10.4346 z m 17.2123,0 7.615,0 0,1.5792 -5.7872,0 0,3.0541 5.2605,0 0,1.4901 -5.2605,0 0,2.7323 5.6863,0 0,1.5789 -7.5141,0 0,-10.4346 z m 21.613,8.9442 2.967,0 c 0.9488,0 1.8117,-0.2628 1.8117,-1.5948 0,-1.0944 -0.6273,-1.6628 -1.7827,-1.6628 l -2.996,0 0,3.2576 z m -1.828,-8.9442 1.828,0 0,4.2976 2.6884,0 c 1.6809,0 2.0764,-0.8472 2.0764,-2.7615 0,-0.5119 0,-1.0831 0.2761,-1.5361 l 1.9593,0 c -0.3946,0.4238 -0.5695,1.5361 -0.5695,2.7482 0,1.6515 -0.9224,2.1183 -1.5497,2.2065 l 0,0.0272 c 0.3373,0.1177 1.7246,0.6321 1.7246,2.6326 0,1.7693 -1.1693,2.8201 -3.4495,2.8201 l -4.9841,0 0,-10.4346 z m 20.2393,3.4801 c 0.044,-2.5874 1.9718,-3.7292 4.3557,-3.7292 2.0739,0 4.15,0.9357 4.15,3.2737 0,1.0806 -0.6585,2.2518 -2.0319,2.662 -0.5406,0.1585 -2.8477,0.7588 -3.009,0.8042 -0.7461,0.2038 -1.2424,0.6117 -1.2424,1.3436 0,1.0511 1.065,1.3592 1.9139,1.3592 1.2564,0 2.1623,-0.4986 2.2502,-1.8442 l 1.8269,0 c 0,2.1796 -1.8269,3.335 -4.0051,3.335 -1.885,0 -3.8137,-0.9811 -3.8137,-3.0699 0,-1.0829 0.5253,-2.1637 2.3105,-2.6459 1.4312,-0.3943 2.38,-0.5848 3.1108,-0.8634 0.4246,-0.1585 0.8631,-0.4805 0.8631,-1.2844 0,-0.7886 -0.5998,-1.5769 -2.2062,-1.5769 -1.4615,0 -2.647,0.6276 -2.647,2.2362 l -1.8258,0 z m 20.6768,-3.4801 1.8272,0 0,10.4346 -1.8272,0 0,-10.4346 z m 13.6477,8.8557 3.3026,0 0,-8.8557 1.8267,0 0,8.8557 3.3173,0 0,1.5789 -8.4466,0 0,-1.5789 z m 22.9552,-8.8557 1.8267,0 0,4.0916 3.9033,6.343 -2.0461,0 -2.7176,-4.6757 -2.762,4.6757 -2.1226,0 3.9183,-6.343 0,-4.0916 z"
           style="fill:#000000;fill-opacity:1;fill-rule:nonzero;stroke:none"
           id="path38" /><path
           d="m 390.3693,105.3337 2.484,0 0,22.5434 0.0722,0 8.9533,-22.5434 2.336,0 8.9155,22.5434 0.0729,0 0,-22.5434 2.4845,0 0,26.0884 -3.6535,0 -8.9884,-22.8708 -9.023,22.8708 -3.6535,0 0,-26.0884 z m 32.8382,0 2.6725,0 3.1425,8.1117 11.874,0 3.1771,-8.1117 2.6691,0 -10.2305,26.0884 -2.7771,0 -10.5276,-26.0884 z m 11.8069,23.6024 5.0425,-13.3718 -10.2676,0 5.2251,13.3718 z m 19.2909,-23.6024 2.4834,0 0,22.0692 0.0731,0 15.1985,-22.0692 2.7769,0 0,26.0884 -2.4835,0 0,-22.0669 -0.0731,0 -15.1985,22.0669 -2.7768,0 0,-26.0884 z m 31.1638,0 2.4843,0 0,26.0884 -2.4843,0 0,-26.0884 z m 13.1513,0 2.4857,0 0,11.1819 9.0981,0 c 4.676,0 7.744,2.7399 7.744,7.4525 0,4.714 -3.068,7.454 -7.744,7.454 l -11.5838,0 0,-26.0884 z m 2.4857,23.9689 8.5499,0 c 3.4333,0 5.8087,-1.7537 5.8087,-5.3345 0,-3.5807 -2.3754,-5.3334 -5.8087,-5.3334 l -8.5499,0 0,10.6679 z m 20.1617,-23.9689 2.6714,0 3.1411,8.1117 11.8777,0 3.1768,-8.1117 2.6679,0 -10.2319,26.0884 -2.7743,0 -10.5287,-26.0884 z m 11.8057,23.6024 5.0423,-13.3718 -10.2651,0 5.2228,13.3718 z m 19.3269,-23.6024 17.0995,0 0,2.1195 -14.6138,0 0,23.9689 -2.4857,0 0,-26.0884 z"
           style="fill:#000000;fill-opacity:1;fill-rule:nonzero;stroke:none"
           id="path40" /><path
           d="m 390.1113,96.5693 179.3376,0 0,1.7198 -179.3376,0 0,-1.7198 z"
           style="fill:#bf5900;fill-opacity:1;fill-rule:nonzero;stroke:none"
           id="path42" /></g><g
         transform="translate(-377.96273,-33.186971)"
         id="g2923"><path
           d="m 513.074,810.5513 37.6676,0 0,-53.9197 -37.6676,0 0,53.9197 z"
           style="fill:#000000;fill-opacity:1;fill-rule:evenodd;stroke:none"
           id="path44" /><path
           d="m 527.0321,806.5361 c 1.9119,1.7209 5.7362,0.3824 8.2219,-2.4857 2.6767,-3.0595 3.0591,-6.31 1.1471,-8.0306 -1.9119,-1.7209 -5.1624,-0.7648 -7.6481,2.103 -2.6771,2.8681 -3.6329,6.6923 -1.7209,8.4133"
           style="fill:#bf5900;fill-opacity:1;fill-rule:evenodd;stroke:none"
           id="path46" /><path
           d="m 521.4872,793.5341 22.7534,0 c 4.2064,-0.3824 4.3977,-8.0305 0.7648,-8.0305 -2.2946,0 -5.1627,0 -5.1627,-3.4419 -0.1911,-1.9119 0,-4.0152 0,-6.1186 0,-0.9561 -0.1911,-1.9119 -0.1911,-2.868 0.1911,-3.0592 -3.4418,-2.1034 -3.6329,1.1471 -0.1913,3.2505 -0.1913,6.6924 -0.1913,9.9428 0,1.5296 -2.6768,1.3386 -2.8681,-1.3385 -0.191,-2.8681 -0.191,-5.9272 -0.191,-8.9867 -0.1914,-3.4415 -3.8243,-2.2943 -4.0153,-0.3824 -0.1914,3.2505 -0.5738,6.6924 -0.1914,10.7076 0.1914,1.721 -3.6328,1.5296 -3.6328,-0.1913 0,-2.8681 0.3823,-5.9272 0,-8.604 -0.3824,-3.6332 -4.0153,-2.677 -4.2067,1.3382 -0.191,1.721 0,4.3977 -0.191,7.4571 0,1.1472 -0.1914,1.912 -1.7209,2.6768 -0.9559,0.5737 -1.3385,0.9561 -1.912,2.1033 -0.7648,1.1472 -1.3385,2.8681 -0.3824,3.6329 1.1472,0.9561 3.6329,0.7648 4.9714,0.9561"
           style="fill:#bf5900;fill-opacity:1;fill-rule:evenodd;stroke:none"
           id="path48" /><path
           d="m 517.0893,761.4116 0,0 -0.5735,0 -0.7648,0 0,6.501 0.9559,0 1.1474,0 1.1472,-5.1625 1.1472,5.1625 0.9561,0 0.9559,0 0,-6.501 -0.5735,0 -0.5737,0 0,5.5449 -1.3385,-5.5449 -0.5735,0 -0.7648,0 -1.1474,5.5449 0,-5.5449 z"
           style="fill:#ffffff;fill-opacity:1;fill-rule:evenodd;stroke:none"
           id="path50" /><path
           d="m 524.5464,761.2203 c -0.5738,0 -0.7648,0.1913 -1.1472,0.3824 -0.1914,0.3824 -0.3824,0.5737 -0.3824,1.1474 0,0.3824 0.191,0.7648 0.3824,0.9559 0.191,0.3824 0.5734,0.3824 1.1472,0.5737 l 0.7647,0 c 0.1914,0.1911 0.3824,0.1911 0.5738,0.1911 0,0 0,0.1913 0.191,0.1913 0,0 0,0.1911 0,0.1911 0,0.1913 -0.191,0.3824 -0.191,0.3824 -0.1914,0 -0.3824,0.1913 -0.7648,0.1913 -0.1913,0 -0.3824,-0.1913 -0.5737,-0.1913 0,-0.1911 -0.1914,-0.3824 -0.1914,-0.5735 l 0,0 -1.1472,0 c 0,0.5735 0.1914,0.9561 0.5738,1.3385 0.3824,0.1911 0.9561,0.3824 1.5295,0.3824 0.5738,0 1.1472,-0.1913 1.5296,-0.3824 0.1914,-0.1913 0.3824,-0.5737 0.3824,-0.9561 l 0,-2.8681 c 0,-0.1913 0,-0.3824 0.1914,-0.3824 0,-0.1913 0,-0.1913 0.191,-0.1913 l 0,0 0,-0.1911 -0.7648,0 -0.5734,0 c -0.1914,0.1911 -0.1914,0.3824 -0.1914,0.5735 l 0,0 c -0.3824,-0.5735 -0.9558,-0.7648 -1.5295,-0.7648 z m 1.5295,1.9122 0,0.5735 c -0.191,0 -0.3824,-0.1911 -0.5734,-0.1911 l -0.5737,0 c -0.1911,-0.1913 -0.3824,-0.1913 -0.3824,-0.3824 -0.1914,0 -0.1914,-0.1913 -0.1914,-0.3824 0,-0.1913 0,-0.3824 0.1914,-0.3824 0,-0.1913 0.1913,-0.1913 0.3824,-0.1913 0.3823,0 0.7647,0.1913 0.9561,0.3824 0,0.1913 0,0.1913 0.191,0.3824 0,0 0,0.1913 0,0.1913 z"
           style="fill:#ffffff;fill-opacity:1;fill-rule:evenodd;stroke:none"
           id="path52" /><path
           d="m 528.3706,761.4116 0,4.7801 0.5734,0 0.7648,0 0,-0.5735 c 0,0 0,0 0,0.1911 0.3824,0.3824 0.9561,0.5737 1.5299,0.5737 0.3824,0 0.7648,-0.1913 1.1472,-0.3824 0.191,-0.3824 0.3824,-0.765 0.3824,-1.3385 l 0,-3.2505 -0.5738,0 -0.5734,0 0,3.0592 c 0,0.1913 -0.1914,0.3824 -0.1914,0.5737 -0.191,0.1911 -0.3824,0.1911 -0.7648,0.1911 -0.1913,0 -0.5737,0 -0.7647,-0.1911 -0.1914,-0.1913 -0.1914,-0.5737 -0.1914,-0.9561 l 0,0 0,-2.6768 -0.5734,0 -0.7648,0 z"
           style="fill:#ffffff;fill-opacity:1;fill-rule:evenodd;stroke:none"
           id="path54" /><path
           d="m 534.1065,761.4116 0,4.7801 0.5737,0 0.5738,0 0,-4.7801 -0.5738,0 -0.5737,0 z m 0,6.501 1.1475,0 0,-1.1472 -1.1475,0 0,1.1472 z"
           style="fill:#ffffff;fill-opacity:1;fill-rule:evenodd;stroke:none"
           id="path56" /><path
           d="m 536.5922,766.1917 0,0 0.5737,0 0.5738,0 0,-0.5735 0,0 c 0.3823,0.5735 0.7647,0.7648 1.3382,0.7648 0.7648,0 1.1472,-0.1913 1.5296,-0.7648 0.3826,-0.3826 0.5737,-0.9561 0.5737,-1.7209 0,-0.7648 -0.1911,-1.3385 -0.5737,-1.9122 -0.3824,-0.3824 -0.7648,-0.7648 -1.5296,-0.7648 -0.3824,0 -0.9559,0.1913 -1.3382,0.7648 l 0,0 0,-2.4854 -0.5738,0 -0.5737,0 0,6.692 z m 2.2946,-3.824 c 0.1911,0 0.5735,0 0.7648,0.3824 0.1911,0.1911 0.1911,0.5735 0.1911,0.9559 0,0.5737 0,0.9561 -0.1911,1.1472 -0.1913,0.1913 -0.5737,0.3824 -0.7648,0.3824 -0.3824,0 -0.7648,-0.1911 -0.9561,-0.3824 -0.191,-0.1911 -0.191,-0.5735 -0.191,-1.1472 l 0,0 c 0,-0.3824 0,-0.7648 0.191,-0.9559 0.1913,-0.3824 0.5737,-0.3824 0.9561,-0.3824 z"
           style="fill:#ffffff;fill-opacity:1;fill-rule:evenodd;stroke:none"
           id="path58" /><path
           d="m 543.2845,761.2203 c -0.3824,0 -0.7648,0.1913 -1.1472,0.3824 -0.1913,0.3824 -0.3824,0.5737 -0.3824,1.1474 0,0.3824 0.1911,0.7648 0.3824,0.9559 0.1911,0.3824 0.5735,0.3824 1.1472,0.5737 l 0.7648,0 c 0.1913,0.1911 0.3824,0.1911 0.5737,0.1911 0,0 0,0.1913 0.1911,0.1913 0,0 0,0.1911 0,0.1911 0,0.1913 -0.1911,0.3824 -0.1911,0.3824 -0.1913,0 -0.3824,0.1913 -0.765,0.1913 -0.1911,0 -0.3824,-0.1913 -0.3824,-0.1913 -0.1911,-0.1911 -0.3824,-0.3824 -0.3824,-0.5735 l 0,0 -1.1472,0 c 0,0.5735 0.1913,0.9561 0.5737,1.3385 0.3824,0.1911 0.9559,0.3824 1.5296,0.3824 0.5737,0 1.1472,-0.1913 1.5296,-0.3824 0.3824,-0.1913 0.3824,-0.5737 0.3824,-0.9561 l 0,-2.8681 c 0,-0.1913 0.1913,-0.3824 0.1913,-0.3824 0,-0.1913 0,-0.1913 0.1911,-0.1913 l 0,0 0,-0.1911 -0.7648,0 -0.5735,0 c -0.1913,0.1911 -0.1913,0.3824 -0.1913,0.5735 l 0,0 c -0.3824,-0.5735 -0.9561,-0.7648 -1.5296,-0.7648 z m 1.5296,1.9122 0,0.5735 c -0.1911,0 -0.3824,-0.1911 -0.5735,-0.1911 l -0.5737,0 c -0.1913,-0.1913 -0.3824,-0.1913 -0.3824,-0.3824 -0.1913,0 -0.1913,-0.1913 -0.1913,-0.3824 0,-0.1913 0,-0.3824 0.1913,-0.3824 0,-0.1913 0.1911,-0.1913 0.3824,-0.1913 0.3824,0 0.7648,0.1913 0.9561,0.3824 0,0.1913 0,0.1913 0.1911,0.3824 0,0 0,0.1913 0,0.1913 z"
           style="fill:#ffffff;fill-opacity:1;fill-rule:evenodd;stroke:none"
           id="path60" /><path
           d="m 547.1084,761.4116 0,6.501 0.7651,0 0.5735,0 0,-6.501 -0.5735,0 -0.7651,0 z"
           style="fill:#ffffff;fill-opacity:1;fill-rule:evenodd;stroke:none"
           id="path62" /><path
           d="m 494.1448,746.8801 0.9561,0 0,6.501 -0.9561,0 0,-6.501 z"
           style="fill:#000000;fill-opacity:1;fill-rule:evenodd;stroke:none"
           id="path64" /><path
           d="m 496.4391,746.8801 0.7648,0 0,5.3538 0.1914,0 3.2505,-5.3538 0.9561,0 0,6.501 -0.7651,0 0,-5.1628 0,0 -3.4415,5.1628 -0.9562,0 0,-6.501 z"
           style="fill:#000000;fill-opacity:1;fill-rule:evenodd;stroke:none"
           id="path66" /><path
           d="m 507.7202,751.4688 c -0.1911,1.5299 -1.1472,2.1033 -2.4854,2.1033 -1.1475,0 -2.2947,-0.5734 -2.2947,-1.9119 0,-1.1472 0.9562,-1.5296 2.1033,-1.721 0.9562,-0.191 1.912,-0.3823 1.912,-1.3385 0,-0.7648 -0.7648,-1.1472 -1.5296,-1.1472 -0.9561,0 -1.9119,0.5738 -1.9119,1.5299 l -0.7648,0 c 0,-1.5299 1.1472,-2.2946 2.6767,-2.2946 1.1472,0 2.4857,0.5737 2.4857,2.1033 0,1.1471 -0.9561,1.5295 -2.1033,1.7209 -0.9558,0.3824 -2.1033,0.3824 -2.1033,1.1472 0,0.9561 0.7648,1.1471 1.5299,1.1471 0.7648,0 1.5295,-0.3824 1.5295,-1.3385 l 0.9559,0 z"
           style="fill:#000000;fill-opacity:1;fill-rule:evenodd;stroke:none"
           id="path68" /><path
           d="m 508.8677,746.8801 0.9558,0 0,2.6768 1.9122,0 c 1.3383,0 2.1031,0.7647 2.1031,1.9119 0,1.3385 -0.7648,1.9123 -2.1031,1.9123 l -2.868,0 0,-6.501 z m 0.9558,5.7362 1.7209,0 c 0.9561,0 1.3385,-0.3824 1.3385,-1.1475 0,-0.7648 -0.3824,-1.1472 -1.3385,-1.1472 l -1.7209,0 0,2.2947 z"
           style="fill:#000000;fill-opacity:1;fill-rule:evenodd;stroke:none"
           id="path70" /><path
           d="m 514.7949,746.8801 0.9561,0 0,6.501 -0.9561,0 0,-6.501 z"
           style="fill:#000000;fill-opacity:1;fill-rule:evenodd;stroke:none"
           id="path72" /><path
           d="m 518.0454,750.513 0,2.1033 2.1033,0 c 0.9561,0 1.1472,-0.3824 1.1472,-0.9561 0,-0.9562 -0.5738,-1.1472 -1.3385,-1.1472 l -1.912,0 z m -0.7648,-3.6329 0.7648,0 0,2.8681 2.1033,0 c 0.9561,0 0.9561,-0.5737 1.1472,-1.1475 0.1913,-0.7648 0,-1.3382 0.1913,-1.7206 l 0.9559,0 c -0.3824,0.5734 -0.3824,1.1472 -0.3824,1.912 0,0.5737 -0.1911,1.1471 -0.9559,1.3385 l 0,0 c 0.7648,0.191 1.1472,0.7648 1.1472,1.5296 0,1.1471 -0.7648,1.7209 -1.9123,1.7209 l -3.0591,0 0,-6.501 z"
           style="fill:#000000;fill-opacity:1;fill-rule:evenodd;stroke:none"
           id="path74" /><path
           d="m 523.3992,746.8801 4.589,0 0,0.7648 -3.6332,0 0,2.2943 3.2505,0 0,0.7648 -3.2505,0 0,1.9123 3.6332,0 0,0.7648 -4.589,0 0,-6.501 z"
           style="fill:#000000;fill-opacity:1;fill-rule:evenodd;stroke:none"
           id="path76" /><path
           d="m 528.944,746.8801 2.2947,0 c 2.103,0 3.0591,1.3382 3.0591,3.4415 0,2.1033 -0.9561,3.0595 -3.0591,3.0595 l -2.2947,0 0,-6.501 z m 0.9562,5.7362 1.5295,0 c 1.5296,0 2.1033,-0.7651 2.1033,-2.4857 0,-2.2947 -1.5295,-2.4857 -2.2943,-2.4857 l -1.3385,0 0,4.9714 z"
           style="fill:#000000;fill-opacity:1;fill-rule:evenodd;stroke:none"
           id="path78" /><path
           d="m 538.8868,749.9392 1.912,0 c 0.7648,0 1.3385,-0.191 1.3385,-1.1471 0,-0.7648 -0.3824,-1.1472 -1.1472,-1.1472 l -2.1033,0 0,2.2943 z m -0.9561,-3.0591 3.2505,0 c 1.1472,0 1.912,0.9558 1.912,1.912 0,0.7648 -0.3824,1.3385 -1.3383,1.5295 l 0,0 c 0.7648,0.3824 1.1472,0.7648 1.1472,1.5296 0,0.5737 -0.3824,1.1475 -0.7648,1.3385 -0.5737,0.1914 -1.1472,0.1914 -1.7209,0.1914 l -2.4857,0 0,-6.501 z m 0.9561,5.7362 1.7207,0 c 0.765,0 1.3385,0 1.3385,-0.9561 0,-0.5738 -0.3824,-0.9562 -1.3385,-0.9562 l -1.7207,0 0,1.9123 z"
           style="fill:#000000;fill-opacity:1;fill-rule:evenodd;stroke:none"
           id="path80" /><path
           d="m 549.4031,753.3811 -0.9561,0 -1.912,-3.0595 -1.912,3.0595 -1.1474,0 2.4857,-3.8242 0,-2.6768 0.9561,0 0,2.6768 2.4857,3.8242 z"
           style="fill:#000000;fill-opacity:1;fill-rule:evenodd;stroke:none"
           id="path82" /><path
           d="m 552.6536,746.8801 4.2063,0 0,0.7648 -3.4415,0 0,5.7362 -0.7648,0 0,-6.501 z"
           style="fill:#000000;fill-opacity:1;fill-rule:evenodd;stroke:none"
           id="path84" /><path
           d="m 557.816,746.8801 0.7648,0 0,6.501 -0.7648,0 0,-6.501 z"
           style="fill:#000000;fill-opacity:1;fill-rule:evenodd;stroke:none"
           id="path86" /><path
           d="m 560.1104,746.8801 0.7651,0 0,3.0591 3.0591,0 0,0.7648 -3.0591,0 0,1.9123 3.4415,0 0,0.7648 -4.2066,0 0,-6.501 z"
           style="fill:#000000;fill-opacity:1;fill-rule:evenodd;stroke:none"
           id="path88" /><path
           d="m 565.2731,746.8801 4.5888,0 0,0.7648 -3.6329,0 0,2.2943 3.2505,0 0,0.7648 -3.2505,0 0,1.9123 3.6329,0 0,0.7648 -4.5888,0 0,-6.501 z"
           style="fill:#000000;fill-opacity:1;fill-rule:evenodd;stroke:none"
           id="path90" /><path
           d="m 520.3911,814.3563 c -0.8144,0.1267 -1.0988,0.2749 -1.1495,0.6897 -0.03,0.2457 0.0284,0.3784 0.1868,0.5493 0.3359,0.3569 0.8391,0.3841 1.4241,0.0987 0.2138,-0.1032 0.2889,-0.2708 0.4147,-0.4604 0.292,0.0729 0.6279,0.0581 0.775,0.4595 0,0.2928 0.0236,0.4737 -0.2647,0.5627 -1.4236,0 -2.8851,0.036 -2.3366,1.6064 1.4139,1.4142 3.3948,-0.5528 4.1269,0.9133 -1.8263,0 -3.653,0 -5.4416,0 0,-1.4975 0,-2.994 0,-4.4912 -0.366,0 -0.6951,0 -1.0231,0 0,0.4739 0,0.9119 0,1.3501 -1.1684,-0.3279 -2.1908,-0.9119 -3.213,-1.4244 -0.1111,0.256 -0.22,0.4751 -0.2931,0.6942 0.4382,0.256 0.8776,0.4751 1.3513,0.6942 -0.811,0.2404 -0.8771,0.9122 -0.9502,1.1325 -0.036,0.693 -0.036,1.3872 -0.036,2.0446 -0.2549,0 -0.5111,0 -0.7314,0 0,0.3288 0,0.6582 0,0.9502 6.9033,0 13.8444,0 20.7842,0 0,-0.292 0,-0.6214 0,-0.9502 -0.2928,0 -0.5853,0 -0.8759,-0.036 0,-1.4244 0,-2.886 0,-4.3464 -0.3294,0 -0.6585,0 -0.9504,0 -0.036,0.8031 -0.036,1.6076 -0.036,2.4109 -0.3303,0 -0.6582,0 -0.9516,-0.0371 0,-0.0913 0,-0.1832 10e-4,-0.273 0.0213,-1.7895 -1.4888,-1.9514 -2.4279,-1.4749 -0.9493,0.4808 -0.8929,1.6838 -0.2146,2.3344 0.0868,0.0807 0.2271,0.2279 0.3799,0.2905 0.676,0.2744 2.3397,0.1451 3.1374,0.1451 0,0.3291 0,0.6585 0,0.9865 -1.6793,0 -3.3228,0 -4.9661,0 0,-1.4604 0,-2.922 0,-4.4192 -0.3293,0 -0.6573,0 -0.9864,0 -0.036,1.4972 -0.036,2.9588 -0.036,4.4192 -0.4751,0 -0.9502,0 -1.4244,-0.036 0,-1.4615 0,-2.922 0,-4.3832 -0.3663,0 -0.6942,0 -1.0236,0 -0.0357,1.0964 -0.0357,2.2218 -0.0357,3.2802 -0.6594,-0.5374 -2.9333,0.3861 -3.2893,-0.216 -0.1491,-0.2517 0.2001,-0.3089 0.3685,-0.3169 1.1029,-0.0547 2.2118,0.1418 2.2626,-1.3589 -0.0956,-0.972 -0.9046,-1.22 -1.6356,-1.366 0.0428,-0.6361 0.4963,-0.6438 0.9558,-0.5338 0,-0.292 0.0224,-0.4739 0.0224,-0.803 -0.9502,0 -1.6985,0.2483 -1.8983,1.3144 z m 11.7232,6.9177 1.0247,0 0,-0.0522 c -0.3294,0 -0.6585,0 -1.0247,0 l 0,0.0522 z m 11.1776,-6.3326 c 0,0.7659 0,0.949 0.2188,1.4244 0.0717,0.1091 0.182,0.2191 0.292,0.2919 -0.0873,0.1463 -0.4975,0.1956 -0.5256,0.6798 -0.1763,1.2549 1.3434,1.3076 2.4251,1.1829 0,0.1462 0,0.2551 0,0.3651 -1.2793,0 -2.5566,0 -3.799,-0.036 0,-1.4616 0,-2.9217 0,-4.3835 -0.3663,0 -0.6942,0 -1.0222,0 -0.0371,0.2565 -0.0371,0.5111 -0.0371,0.7302 -0.9491,-0.402 -1.8624,-0.8031 -2.776,-1.2039 -0.1088,0.2548 -0.2188,0.4737 -0.292,0.6928 0.292,0.1463 0.5777,0.2778 0.9057,0.3875 -0.8036,0.4014 -1.0369,0.7597 -1.1843,1.1976 -0.1964,1.1311 0.4235,2.0974 1.5344,2.2354 0.4382,0.0664 1.1191,-0.0221 1.7762,-0.3506 0,0.2565 0,0.5116 0,0.7305 -1.2785,0 -2.5566,0 -3.799,0 0,0.3291 0,0.6571 0,0.949 4.0921,0 8.208,0 12.3276,0 0.4133,0 0.8266,0 1.239,0 l 0.0102,-0.949 c -0.3866,0 -0.7733,0 -1.1585,0 0,-1.4616 0,-2.9217 0,-4.3821 -0.3663,0 -0.6942,0 -1.023,0 0,0.2908 0,0.5471 0,0.8031 -0.4014,0 -0.8034,0 -1.2045,0 -0.2931,-0.584 -1.0601,-0.3651 -1.3527,-0.292 -0.3648,0.3648 -0.2545,0.6199 -0.2545,0.767 0.4186,0.3351 0.6346,0.1126 0.6942,0.152 -0.0519,0.7086 -1.402,0.4323 -1.5852,0.3223 -1.4023,-1.247 0.6044,-2.2669 2.0736,-2.0087 -0.036,-0.3291 -0.0148,-0.657 -0.0148,-0.9861 -1.3626,0 -2.9914,0.1794 -3.4684,1.6804 z m -12.9549,1.3504 c 0,-0.2699 -0.1333,-0.4853 -0.3929,-0.5752 -0.2866,-0.0992 -0.6055,0.0258 -0.7189,0.1259 -0.392,0.3478 -0.0876,1.258 0.764,0.9456 0.1987,-0.072 0.3478,-0.2559 0.3478,-0.4963 z m 8.0816,0.8626 1.7747,-1.2053 c -0.5482,-0.6494 -2.3624,-0.0516 -1.7747,1.2053 z m -22.5939,-0.9718 c -1.2288,0.4045 -0.8404,1.2864 -0.8404,2.5929 0.6942,0 1.3898,0 2.0828,0 -0.0314,-0.5752 -0.064,-1.1772 -0.072,-1.7838 -0.006,-0.6013 -0.6624,-0.7249 -1.1704,-0.8091 z m 31.375,0.1092 c -0.2202,0.731 -0.6582,0.8402 -1.0601,0.9502 -0.5619,0.102 -1.1897,0.0731 -1.7742,-0.0664 -0.2413,0.036 -0.2492,0.4683 0.0946,0.5777 0.7098,0.1245 1.4604,0.0357 2.2275,0.0357 0,0.366 0,0.7314 0.036,1.0965 0.5494,0 1.0964,0 1.6447,0 0,-0.8402 0,-1.7167 0,-2.5937 -0.4023,0 -0.8045,0 -1.1685,0 z m -6.5018,0.074 -1.7751,1.2707 c 0.8045,0.22 1.9301,-0.0263 1.7751,-1.2707"
           style="fill:#bf5900;fill-opacity:1;fill-rule:evenodd;stroke:none"
           id="path92" /><path
           d="m 532.1305,822.1598 1.0252,0 0,-0.8802 -1.0252,0 0,0.8802 z"
           style="fill:#bf5900;fill-opacity:1;fill-rule:evenodd;stroke:none"
           id="path94" /></g></g></g></svg>